<?xml version="1.0" encoding="UTF-8"?>
<svg xmlns="http://www.w3.org/2000/svg" xmlns:xlink="http://www.w3.org/1999/xlink" viewBox="0 0 532.65 532.65">
  <defs>
    <style>
      .cls-1 {
        fill: #000;
      }

      .cls-1, .cls-2, .cls-3 {
        stroke-width: 0px;
      }

      .cls-2 {
        fill: #fff;
        opacity: .3;
      }

      .cls-3 {
        fill: url(#radial-gradient);
      }
    </style>
    <radialGradient id="radial-gradient" cx="266.33" cy="266.33" fx="266.33" fy="266.33" r="266.33" gradientUnits="userSpaceOnUse">
      <stop offset=".6" stop-color="#fff"/>
      <stop offset="1" stop-color="#d4d1cc"/>
    </radialGradient>
  </defs>
  <g id="Layer_1" data-name="Layer 1">
    <circle class="cls-3" cx="266.33" cy="266.33" r="266.33"/>
  </g>
  <g id="Layer_2" data-name="Layer 2">
    <ellipse class="cls-2" cx="123.13" cy="80.84" rx="96.11" ry="25.27" transform="translate(-23.72 92.37) rotate(-37.78)"/>
  </g>
  <g id="Layer_3" data-name="Layer 3">
    <path class="cls-1" d="M265.89,519.12c-.62-3.77-1.23-7.55-1.86-11.32-5.6-33.56-13.02-66.67-25.52-98.42-3.3-8.37-7.56-16.35-11.22-24.58-5.18-11.64-14.68-17.58-26.56-20.32-12.09-2.79-24.37-2.75-36.65-1.66-40.76,3.6-79.43,15.65-117.72,29.22-1.02.36-2.05.7-3.5.46.77-.61,1.51-1.25,2.32-1.81,24.11-16.65,47.36-34.4,68.73-54.49,14.18-13.33,27.67-27.33,37.27-44.51,4.17-7.46,7.27-15.26,7.05-24.08-.13-5.09-1.84-9.59-4.34-13.87-7.83-13.4-18.07-24.89-28.72-36.05-24.64-25.84-51.5-49.25-78.98-71.98-.5-.41-.97-.85-1.24-1.89.83.22,1.69.38,2.49.67,27.64,10.09,55.75,18.55,84.63,24.32,17.65,3.53,35.46,5.88,53.51,4.91,10.97-.59,21.7-2.42,31.03-8.95,4.42-3.1,7.39-7.32,9.93-11.98,12.45-22.82,20.68-47.26,26.64-72.4,4.8-20.22,8.26-40.76,12.33-61.16.17-.85.43-1.68.72-2.8,2.69,14.28,5.03,28.26,7.99,42.11,6.29,29.41,14.24,58.33,27.5,85.48,2.81,5.76,5.93,11.6,10.02,16.45,6.74,7.99,16.54,10.52,26.48,11.94,20.49,2.94,40.67.07,60.76-3.73,29.43-5.58,57.98-14.34,86.13-24.46.8-.29,1.64-.49,2.65-.34-6.62,5.61-13.34,11.11-19.83,16.85-12.8,11.32-25.89,22.35-38.08,34.29-13.63,13.35-26.54,27.44-39.44,41.5-4.04,4.4-7.09,9.71-10.53,14.65-7.78,11.19-6.82,22.76-1.4,34.51,5.24,11.36,12.67,21.22,20.96,30.45,25.99,28.95,56.61,52.44,88.36,74.59.54.37,1.04.8,1.3,1.81-1.76-.65-3.51-1.31-5.27-1.94-28.82-10.34-58.1-19.1-88.23-24.7-14.81-2.75-29.77-4.67-44.89-4.17-10.05.33-19.99,1.52-29.25,5.93-6.24,2.97-11.05,7.4-14.44,13.45-11.18,19.94-18.58,41.36-24.77,63.25-6.8,24.06-11.6,48.54-15.36,73.23-.08.49-.21.98-.32,1.47-.23.02-.46.03-.68.05Z"/>
  </g>
</svg>