<?xml version="1.0" encoding="UTF-8"?>
<svg xmlns="http://www.w3.org/2000/svg" xmlns:xlink="http://www.w3.org/1999/xlink" viewBox="0 0 532.65 532.98">
  <defs>
    <style>
      .cls-1 {
        fill: #000;
      }

      .cls-1, .cls-2, .cls-3 {
        stroke-width: 0px;
      }

      .cls-2 {
        fill: #fff;
        opacity: .3;
      }

      .cls-3 {
        fill: url(#radial-gradient);
      }
    </style>
    <radialGradient id="radial-gradient" cx="266.33" cy="266.33" fx="266.33" fy="266.33" r="266.33" gradientUnits="userSpaceOnUse">
      <stop offset=".6" stop-color="#87a5b8"/>
      <stop offset="1" stop-color="#243c46"/>
    </radialGradient>
  </defs>
  <g id="Layer_1" data-name="Layer 1">
    <circle class="cls-3" cx="266.33" cy="266.33" r="266.33"/>
  </g>
  <g id="Layer_2" data-name="Layer 2">
    <ellipse class="cls-2" cx="123.13" cy="80.84" rx="96.11" ry="25.27" transform="translate(-23.72 92.37) rotate(-37.78)"/>
  </g>
  <g id="Layer_3" data-name="Layer 3">
    <path class="cls-1" d="M204.94,73.88c-49.34,39.51-48.85,105.84-13.63,144.7,37.54,41.43,100.83,43.84,141.01,6.06,22.09-20.77,32.54-46.79,31.01-77.1-1.53-30.33-15.09-54.71-38.76-73.63.17-.34.34-.67.51-1.01,11.64,3.81,23.48,7.09,34.88,11.53,43.02,16.75,78.8,43.16,105.37,81.23,20.99,30.07,32.76,63.46,34.05,100.27,1.71,48.88-14.11,91.83-45.29,129.05-34.13,40.74-78.02,65.77-129.58,77.42-13.1,2.96-26.55,5.08-39.93,5.86-15.23.89-30.61.47-45.85-.51-26.65-1.71-52.14-8.85-76.65-19.25-21.49-9.11-41.25-21.24-59.08-36.31-23.22-19.62-41.79-42.94-54.66-70.61-8.31-17.86-14.25-36.48-15.88-56.17-.97-11.67-1.65-23.48-1.06-35.15,1.12-22.06,6.47-43.26,15.85-63.34,25.82-55.32,69.2-91.32,125.2-113.22,9.34-3.65,19.15-6.12,28.75-9.11.99-.31,2.06-.4,3.75-.72Z"/>
  </g>
</svg>