<?xml version="1.0" encoding="UTF-8"?>
<svg xmlns="http://www.w3.org/2000/svg" xmlns:xlink="http://www.w3.org/1999/xlink" viewBox="0 0 532.65 532.65">
  <defs>
    <style>
      .cls-1 {
        fill: #000;
      }

      .cls-1, .cls-2, .cls-3 {
        stroke-width: 0px;
      }

      .cls-2 {
        fill: #fff;
        opacity: .3;
      }

      .cls-3 {
        fill: url(#radial-gradient);
      }
    </style>
    <radialGradient id="radial-gradient" cx="266.33" cy="266.33" fx="266.33" fy="266.33" r="266.33" gradientUnits="userSpaceOnUse">
      <stop offset=".6" stop-color="#f4ba43"/>
      <stop offset="1" stop-color="#b5873c"/>
    </radialGradient>
  </defs>
  <g id="Layer_1" data-name="Layer 1">
    <circle class="cls-3" cx="266.33" cy="266.33" r="266.33"/>
  </g>
  <g id="Layer_2" data-name="Layer 2">
    <ellipse class="cls-2" cx="123.13" cy="80.84" rx="96.11" ry="25.27" transform="translate(-23.72 92.37) rotate(-37.78)"/>
  </g>
  <g id="Layer_3" data-name="Layer 3">
    <path class="cls-1" d="M383.68,146.39c-4.66-2.9-9.29-5.87-14-8.7-24.11-14.47-49.41-26.16-76.88-32.7-17.74-4.23-35.72-6.26-53.94-4.34-28.06,2.95-52.64,13.27-71.59,34.92-12.52,14.31-19.96,31.05-22.46,49.87-4.48,33.7,5.98,63.33,25.47,90.24,18.08,24.97,41.89,43.31,68.61,58.15,4.11,2.28,8.31,4.39,13.3,7.01-14.74-55.37-29.25-109.87-43.76-164.37.14-.13.28-.26.42-.39,2.96,2.65,5.95,5.27,8.89,7.94,29.56,26.91,59.06,53.87,88.67,80.72,50.98,46.25,102.02,92.44,153.08,138.59,1.88,1.7,2.1,3.01,1.07,5.25-8.16,17.57-20.34,31.81-35.8,43.27-20.96,15.54-44.73,24.34-70.25,28.91-16.48,2.95-33.08,3.69-49.73,2.8-18.5-.99-36.67-4.25-54.46-9.49-32.52-9.57-62.07-24.98-88.99-45.48-23.02-17.52-43.05-38.04-60.6-61.01-14.92-19.53-28.28-40.13-38.53-62.44-4.98-10.84-7.99-22.65-11.15-34.23-4.24-15.55-6.58-31.46-7.52-47.6-1.28-21.92.87-43.4,7.71-64.27,5.96-18.17,15.27-34.48,28.26-48.65,21.65-23.62,48.74-37.42,79.73-43.87,42.3-8.81,83.33-3.13,123.27,12.17,31.47,12.05,59.62,29.69,84.95,51.85,5.67,4.96,11.14,10.14,16.7,15.21-.15.21-.31.43-.46.64ZM357.42,369.5c.09-.14.19-.28.28-.41-23.16-21.83-46.33-43.66-70.11-66.06,3.44,15.7,6.75,30.52,9.86,45.37.47,2.24,1.49,3.08,3.5,3.65,4.56,1.28,9.05,2.77,13.57,4.17,14.3,4.43,28.6,8.85,42.9,13.28Z"/>
  </g>
</svg>