<?xml version="1.0" encoding="UTF-8"?>
<svg xmlns="http://www.w3.org/2000/svg" xmlns:xlink="http://www.w3.org/1999/xlink" viewBox="0 0 532.65 537.28">
  <defs>
    <style>
      .cls-1 {
        fill: #000;
      }

      .cls-1, .cls-2, .cls-3 {
        stroke-width: 0px;
      }

      .cls-2 {
        fill: #fff;
        opacity: .3;
      }

      .cls-3 {
        fill: url(#radial-gradient);
      }
    </style>
    <radialGradient id="radial-gradient" cx="266.33" cy="266.33" fx="266.33" fy="266.33" r="266.33" gradientUnits="userSpaceOnUse">
      <stop offset=".6" stop-color="#f7b4d1"/>
      <stop offset="1" stop-color="#d64778"/>
    </radialGradient>
  </defs>
  <g id="Layer_1" data-name="Layer 1">
    <circle class="cls-3" cx="266.33" cy="266.33" r="266.33"/>
  </g>
  <g id="Layer_2" data-name="Layer 2">
    <ellipse class="cls-2" cx="123.13" cy="80.84" rx="96.11" ry="25.27" transform="translate(-23.72 92.37) rotate(-37.78)"/>
  </g>
  <g id="Layer_3" data-name="Layer 3">
    <g>
      <path class="cls-1" d="M505.07,258.69c-1.28,47.3-13.87,85.95-37.61,120.98-25.48,37.61-58.91,66.35-98.59,88.1-28.31,15.52-58.3,26.5-89.77,33.56-6.98,1.56-7.41,1.32-5.86-5.65,4.68-20.93,8.77-42.03,14.5-62.68,9.7-34.99,29.59-63.22,59.96-83.48,17.18-11.46,34.71-22.39,52.29-33.22,21.02-12.95,37.61-29.86,48.05-52.4,8.13-17.55,11.2-36.12,10.68-55.39-.59-21.85-4.56-43.11-11.32-63.84-3.39-10.4-7.4-20.6-10.99-30.94-.39-1.12.18-2.57.3-3.87,1.17.41,2.67.48,3.46,1.27,14.7,14.82,27.64,31.02,38.07,49.15,13.17,22.89,21.51,47.46,24.88,73.63,1.27,9.84,1.58,19.8,1.96,24.78Z"/>
      <path class="cls-1" d="M26.29,261.67c.36-28.77,6.33-56.35,18.18-82.7,10.96-24.37,25.91-45.96,44.24-65.31.54-.57,1.01-1.3,1.67-1.67,1.43-.8,3.44-2.36,4.37-1.91,2.29,1.12.53,3.04-.11,4.64-10.28,25.55-18.7,51.63-21.26,79.23-3.4,36.69,3.78,70.38,28.98,98.74,9.96,11.21,22.18,19.47,34.89,27.15,18.55,11.2,37.4,21.9,54.63,35.18,20.29,15.64,34.78,35.49,44.61,59.02,7.97,19.07,12.84,39,17.16,59.11,1.8,8.39,3.48,16.81,5.22,25.22.6,2.9-.89,4.59-3.62,3.82-14.56-4.09-29.24-7.81-43.61-12.49-25.04-8.15-48.38-19.99-70.31-34.52-29.48-19.53-55.02-43.24-75.32-72.35-13.78-19.77-24.39-41.08-31.25-64.26-5.5-18.56-8.2-37.48-8.47-56.89Z"/>
      <path class="cls-1" d="M132.35,135.71c4.6,1.37,8.8,2.69,13.03,3.87,13.67,3.79,27.51,6.27,41.79,5.66,19.53-.84,35.09-9.03,46.91-24.6,8.7-11.46,14.77-24.26,19.65-37.67,3.36-9.22,6.34-18.58,9.61-27.83.39-1.09,1.56-1.9,2.37-2.84.8.95,1.97,1.78,2.35,2.88,3.83,10.85,7.35,21.82,11.31,32.62,3.9,10.62,8.93,20.7,15.53,29.96,13.11,18.39,30.98,27.36,53.48,27.49,14.98.09,29.37-3.11,43.59-7.37,1.62-.49,3.21-1.21,4.86-1.44,1.29-.18,2.65.26,3.99.42-.69,1.24-1.07,2.9-2.11,3.64-6.7,4.79-13.57,9.35-20.34,14.05-20.45,14.19-40.28,29.11-56.73,48.04-13.74,15.82-23.33,33.98-30.61,53.49-9.6,25.73-14.86,52.54-19.62,79.46-1.14,6.45-2.26,12.91-3.58,19.32-.22,1.05-1.44,1.89-2.19,2.82-.74-.96-1.95-1.83-2.16-2.89-3.95-20.17-7.32-40.46-11.77-60.52-6.62-29.84-16.55-58.45-35.3-83.19-13.29-17.54-29.66-31.91-47.33-44.82-11.85-8.66-23.97-16.92-35.97-25.37-.65-.45-1.43-.83-1.85-1.45-.46-.66-.95-1.69-.73-2.32.22-.66,1.28-1.03,1.78-1.4Z"/>
    </g>
  </g>
</svg>