<?xml version="1.0" encoding="UTF-8"?>
<svg xmlns="http://www.w3.org/2000/svg" xmlns:xlink="http://www.w3.org/1999/xlink" viewBox="0 0 532.65 532.65">
  <defs>
    <style>
      .cls-1 {
        fill: #000;
      }

      .cls-1, .cls-2, .cls-3 {
        stroke-width: 0px;
      }

      .cls-2 {
        fill: #fff;
        opacity: .3;
      }

      .cls-3 {
        fill: url(#radial-gradient);
      }
    </style>
    <radialGradient id="radial-gradient" cx="266.33" cy="266.33" fx="266.33" fy="266.33" r="266.33" gradientUnits="userSpaceOnUse">
      <stop offset=".6" stop-color="#dd863f"/>
      <stop offset="1" stop-color="#dd5826"/>
    </radialGradient>
  </defs>
  <g id="Layer_1" data-name="Layer 1">
    <circle class="cls-3" cx="266.33" cy="266.33" r="266.33"/>
  </g>
  <g id="Layer_2" data-name="Layer 2">
    <ellipse class="cls-2" cx="123.13" cy="80.84" rx="96.11" ry="25.27" transform="translate(-23.72 92.37) rotate(-37.78)"/>
  </g>
  <g id="Layer_3" data-name="Layer 3">
    <g>
      <path class="cls-1" d="M355.38,484.27h-181.63v-41.23c5.89,0,11.61.14,17.3-.09,1.57-.06,3.45-.82,4.59-1.9,5.25-4.94,10.36-10.04,15.35-15.26,1.02-1.07,1.81-2.85,1.82-4.31.15-11.96.03-23.92.17-35.88.02-1.47.76-3.27,1.78-4.33,5.47-5.7,11.08-11.28,16.79-16.75,1-.96,2.69-1.68,4.07-1.7,11.86-.13,23.72-.13,35.58-.01,2.18.02,3.67-.66,5.16-2.19,5.02-5.18,10.26-10.15,15.22-15.39,1.07-1.13,1.91-3.01,1.93-4.55.14-17.89.15-35.78.03-53.67-.02-2.5.73-4.21,2.51-5.9,5.95-5.63,11.73-11.46,17.68-17.1.82-.77,2.2-1.35,3.32-1.35,38.45-.07,76.9-.07,115.35,0,1.2,0,2.68.65,3.54,1.49,6.1,5.92,12.12,11.92,18.04,18.02.84.86,1.44,2.36,1.44,3.57.1,38.75.13,77.49.06,116.24,0,1.38-.72,3.08-1.68,4.08-5.4,5.64-10.91,11.17-16.55,16.58-1.06,1.02-2.86,1.79-4.33,1.8-18.28.12-36.57.11-54.86.02-2.06,0-3.49.59-4.91,2.04-5.3,5.46-10.79,10.74-16.04,16.25-1.01,1.06-1.72,2.85-1.74,4.31-.12,11.27-.04,22.53-.02,33.8,0,1.07,0,2.14,0,3.4Z"/>
      <path class="cls-1" d="M173.21,262.43c25.7,0,51.4.03,77.09-.05,2.15,0,3.68.58,5.15,2.15,5.8,6.2,11.77,12.25,17.55,18.47.83.89,1.41,2.39,1.42,3.62.11,11.46.09,22.93.02,34.39,0,.97-.4,2.16-1.04,2.86-5.46,5.98-10.95,11.92-16.6,17.72-.94.97-2.67,1.64-4.04,1.66-12.35.13-24.71.02-37.06.17-1.44.02-3.23.81-4.25,1.84-5.59,5.71-11.05,11.56-16.4,17.5-.87.96-1.36,2.6-1.37,3.93-.09,10.77.05,21.55-.08,32.32-.02,1.58-.76,3.47-1.8,4.65-5.49,6.21-11.13,12.3-16.88,18.28-1.01,1.05-2.79,1.89-4.22,1.9-25.3.12-50.6.12-75.91,0-1.44,0-3.23-.81-4.25-1.85-5.55-5.62-10.95-11.4-16.28-17.23-.83-.91-1.46-2.38-1.46-3.6-.06-38.35-.03-76.7.05-115.05,0-1.05.46-2.34,1.15-3.11,5.88-6.53,11.81-13.02,17.88-19.37.86-.9,2.59-1.38,3.92-1.39,25.8-.08,51.59-.06,77.39-.06v.23Z"/>
      <path class="cls-1" d="M357.02,153.27c0,23.23,0,46.46,0,69.69,0,13.19-8.38,21.7-21.59,21.78-13.74.08-27.48.1-41.22,0-13.01-.1-21.36-8.7-21.36-21.71,0-46.75,0-93.51,0-140.26,0-12.46,8.56-21.02,21.01-21.02,14.13,0,28.27-.01,42.4,0,12.09,0,20.76,8.59,20.78,20.67.04,23.62.01,47.25.01,70.87h-.02Z"/>
      <path class="cls-1" d="M171.22,153.12c0-23.43,0-46.86,0-70.28,0-12.77,8.35-21.13,21.1-21.13,13.94,0,27.88.02,41.81.03,12.57,0,21.16,8.32,21.17,20.85.04,47.05,0,94.11-.07,141.16-.02,12.47-8.39,20.81-21.14,20.96-13.94.17-27.88.09-41.81.03-13.97-.06-21.29-10.93-21.13-21.34.36-23.42.11-46.85.11-70.28h-.04Z"/>
      <path class="cls-1" d="M453.72,165.94c0,19.07,0,38.14,0,57.21,0,12.89-8.22,21.41-21.16,21.56-13.93.16-27.86.16-41.79,0-12.85-.15-21.21-8.8-21.21-21.56,0-38.14,0-76.28,0-114.42,0-13.15,8.52-21.66,21.68-21.66,13.73,0,27.47-.01,41.2,0,12.79,0,21.31,8.55,21.32,21.37,0,19.17,0,38.34,0,57.51h-.02Z"/>
      <path class="cls-1" d="M72.81,165.9c0-19.57,0-39.15,0-58.72,0-11.33,8.65-20.08,20.05-20.12,14.53-.06,29.06-.04,43.6,0,11.65.04,20.38,8.8,20.38,20.45,0,38.65-.18,77.31.04,115.96.06,10.52-7.04,21.07-20.87,21.25-14.13.18-28.27.11-42.41.04-13.88-.07-21.13-11.42-20.89-21.32.47-19.17.14-38.35.14-57.53h-.04Z"/>
    </g>
  </g>
</svg>