<?xml version="1.0" encoding="UTF-8"?>
<svg xmlns="http://www.w3.org/2000/svg" xmlns:xlink="http://www.w3.org/1999/xlink" viewBox="0 0 532.65 532.65">
  <defs>
    <style>
      .cls-1 {
        fill: #000;
      }

      .cls-1, .cls-2, .cls-3 {
        stroke-width: 0px;
      }

      .cls-2 {
        fill: #fff;
        opacity: .3;
      }

      .cls-3 {
        fill: url(#radial-gradient);
      }
    </style>
    <radialGradient id="radial-gradient" cx="266.33" cy="266.33" fx="266.33" fy="266.33" r="266.33" gradientUnits="userSpaceOnUse">
      <stop offset=".6" stop-color="#ee766b"/>
      <stop offset="1" stop-color="#dc212c"/>
    </radialGradient>
  </defs>
  <g id="Layer_1" data-name="Layer 1">
    <circle class="cls-3" cx="266.33" cy="266.33" r="266.33"/>
  </g>
  <g id="Layer_2" data-name="Layer 2">
    <ellipse class="cls-2" cx="123.13" cy="80.84" rx="96.11" ry="25.27" transform="translate(-23.72 92.37) rotate(-37.78)"/>
  </g>
  <g id="Layer_3" data-name="Layer 3">
    <path class="cls-1" d="M42.38,338.07c22.14,22.39,47.83,38.25,78.55,47.08-4.66-5.98-8.99-11.29-13.07-16.79-14.67-19.76-26.73-40.92-33.4-64.78-11.6-41.5-3.54-79.27,22.11-113.53,10.66-14.24,23.38-26.41,37.89-36.7.69-.49,1.4-.96,2.11-1.42.24-.15.53-.24,1.66-.74-1.09,1.67-1.76,2.67-2.41,3.68-8.46,13.04-14.97,26.85-17.29,42.42-2.76,18.55,1.01,35.71,10.73,51.61,9.5,15.54,22.52,27.51,38.32,36.77-1.26-2.24-2.54-4.46-3.77-6.71-16.63-30.58-15.03-60.42,3.69-89.53,10.04-15.63,22.69-28.98,36.83-40.86,14.57-12.24,29.56-23.98,44.4-35.91,16.65-13.38,20.55-30.41,14.41-50.28-4.18-13.52-11.69-25.17-20.61-36-.59-.72-1.19-1.43-1.48-2.66,2.46.88,4.94,1.7,7.37,2.64,42.29,16.37,70.47,46.61,86.8,88.44,7.57,19.39,11.86,39.56,14.14,60.22,2.65,23.91,2.26,47.77-.2,71.65-.4,3.89-1.07,7.75-1.7,12.26,6.66-.61,13.12-.95,19.5-1.83,15.41-2.11,30.42-5.88,44.47-12.71,21.57-10.49,38.38-25.71,47.27-48.58.72-1.85,1.3-3.74,2.07-5.99,5,6.87,8.81,14.04,11.74,21.67,10.72,27.85,5.71,53.82-9.81,78.35-13.36,21.1-31.45,37.61-51.64,51.94-6.57,4.67-13.53,8.8-20.31,13.17-.67.43-1.32.88-1.84,1.61,48.61-.09,89.03-18.88,122.88-53.55-1.02,3.85-1.93,7.74-3.07,11.55-12.71,42.33-32.26,81.05-61.18,114.69-35.77,41.61-80.46,67.89-134.85,76.68-46.39,7.5-92.13,4.43-136.43-11.8-51.21-18.77-88.69-53.44-114.11-101.44-8.48-16.01-15.07-32.77-19.42-50.39-.23-.93-.43-1.87-.59-2.81-.05-.27.08-.58.22-1.42ZM168,380.68c1.99.61,4,1.17,5.97,1.84,20.53,6.96,26.82,27.53,13.59,44.67-2.72,3.53-5.9,6.71-8.9,10.01-5.26,5.79-6.76,12.31-4.12,19.77,2.16,6.1,5.44,11.52,9.79,16.27,12.02,13.14,27.49,20.11,44.43,24.08,27.62,6.48,55.3,5.66,82.86-.51,11.37-2.54,22.26-6.44,31.75-13.46,10.11-7.47,15.25-17.27,13.44-30.05-.98-6.95-4.06-13.11-7.42-19.2-2.92-5.28-5.96-10.59-8.02-16.22-6.76-18.43-3.37-34.92,10.73-48.81,3.79-3.73,8.18-6.86,12.64-10.56-28.23.83-51.53,9.82-65.45,36.23,0-4.71.12-9-.02-13.28-.37-11.15-2.73-21.72-9.81-30.72-5.21-6.62-12.02-11.37-18.96-15.95-5.88-3.88-7.46-7.9-5.81-14.7,2.51-10.29,8.65-18.58,14.91-26.79,1.94-2.54,4.03-4.97,6.05-7.45-.19-.35-.37-.7-.56-1.05-7.19,1.71-14.57,2.87-21.55,5.22-19.07,6.44-35.27,17.3-47.39,33.55-7.38,9.9-6.7,19.02,1.41,28.37,3.55,4.1,7.38,7.96,11.14,11.86,7.03,7.3,10.95,15.6,8.74,26-1.47,6.92-4.73,12.93-9.26,18.27-1.93,2.27-4.06,4.37-6.46,6.94-.21-1.12-.35-1.42-.3-1.7,1.82-11.69-4.11-19.54-13.02-25.72-12.29-8.52-26.06-9.45-40.4-6.95Z"/>
  </g>
</svg>