<?xml version="1.0" encoding="UTF-8"?>
<svg xmlns="http://www.w3.org/2000/svg" xmlns:xlink="http://www.w3.org/1999/xlink" viewBox="0 0 545.3 541.65">
  <defs>
    <style>
      .cls-1 {
        fill: #000;
      }

      .cls-1, .cls-2, .cls-3 {
        stroke-width: 0px;
      }

      .cls-2 {
        fill: #fff;
        opacity: .3;
      }

      .cls-3 {
        fill: url(#radial-gradient);
      }
    </style>
    <radialGradient id="radial-gradient" cx="278.97" cy="266.98" fx="278.97" fy="266.98" r="266.33" gradientUnits="userSpaceOnUse">
      <stop offset=".6" stop-color="#e9eb9e"/>
      <stop offset="1" stop-color="#36b44a"/>
    </radialGradient>
  </defs>
  <g id="Layer_1" data-name="Layer 1">
    <circle class="cls-3" cx="278.97" cy="266.98" r="266.33"/>
  </g>
  <g id="Layer_2" data-name="Layer 2">
    <ellipse class="cls-2" cx="135.77" cy="81.49" rx="96.11" ry="25.27" transform="translate(-21.46 100.26) rotate(-37.78)"/>
  </g>
  <g id="Layer_3" data-name="Layer 3">
    <path class="cls-1" d="M258.43,450.24c1.08,7.66,2.43,15.53,3.24,23.46,1.2,11.81,2.22,23.65,2.9,35.5.29,5.14-.38,5.59-5.52,4.74-18.55-3.06-37.07-6.27-55.56-9.65-1.23-.22-2.73-2.15-3.06-3.53-3.45-14.28-6.79-28.58-9.94-42.93-1.28-5.85-2.11-11.81-2.97-17.75-.33-2.25-1.72-2.7-3.54-3.19-27.95-7.46-53.93-19.07-76.95-36.8-23.07-17.77-39.87-39.92-47.02-68.61-4.72-18.96-4.4-38.06-.85-57.13,6.47-34.77,23.19-64.49,45.58-91.33,25.09-30.08,55.17-54.46,87.74-75.88,49.46-32.53,102.48-57.89,158.17-77.81,2.63-.94,3.86-.37,5.46,1.72,36.62,47.87,69.2,98.25,95.12,152.76,13.69,28.78,24.96,58.43,31.27,89.78,3.55,17.66,5.12,35.48,3.3,53.46-2.24,22.12-12.08,40.65-27.56,56.33-16.28,16.48-35.98,27.69-57.13,36.55-30.29,12.69-61.99,20.22-94.41,24.74-15.86,2.21-31.82,3.7-48.27,5.57ZM207.66,329.98c-15.45-11.18-32.93-19.46-52.36-23.57-22.73-4.81-47.24-.28-56.05,5.1,10.91,2.46,22.8,4.41,34.24,7.85,27.45,8.25,50.91,22.68,67.91,46.44,3.1,4.33,4.61,8.45,4.22,14.2-1.82,26.79,4.74,51.87,17.25,75.5.32.61.81,1.12,1.63,2.24.2-3.23.33-5.69.51-8.14,1.39-19.04,2.94-38.08,4.07-57.13.26-4.3,2.26-6.92,5.23-9.4,47.8-40.06,102.64-53.72,163.78-43.59,6.73,1.12,13.38,2.77,20.06,4.17.02-.32.03-.65.05-.97-59.91-29.57-120.08-25.94-180.72-.09.65-5.57,1.01-10.62,1.85-15.59,1.92-11.36,3.94-22.71,6.24-33.99.39-1.93,2.02-4.05,3.69-5.23,34.33-24.43,72.37-37.17,114.76-35.9,19.01.57,37.34,4.48,55.11,11.17,2.74,1.03,5.48,2.08,8.22,3.11.06-.37.12-.73.18-1.1-53.81-36.96-110.15-43.18-170.21-12.71,3.08-10.95,5.92-21.22,8.9-31.44.33-1.14,1.3-2.25,2.25-3.04,19.17-15.98,40.67-27.61,64.78-34.16,17.04-4.63,34.37-6.98,52.07-5.35,6.28.58,12.55,1.29,18.82,1.95-41.56-19.46-82.77-16.67-124.42,2.54,13.23-32.02,26.15-63.31,39.07-94.59-.28-.14-.57-.28-.85-.43-22.3,30.15-44.32,60.48-60.03,95.08-.83-.66-1.46-1.16-2.09-1.66-16.96-13.44-35.34-23.77-57.27-26.54-7.41-.94-19.53.37-24.72,3.13.32.21.58.49.89.56,28.15,6.59,49.04,23,64.43,47.13,3.15,4.93,3.75,8.95,1,14.42-4.39,8.76-7.69,18.06-11.54,27.36-15.34-12.63-32.57-21.1-52.17-24.46-18.91-3.24-49.76.63-56.58,7.18,17.21.32,33.79,3.48,49.65,10.03,19.44,8.04,35.51,20.35,47.25,37.96.84,1.26,1.2,3.3.9,4.79-3.21,15.66-6.6,31.27-10,47.2Z"/>
  </g>
</svg>