<?xml version="1.0" encoding="UTF-8"?>
<svg xmlns="http://www.w3.org/2000/svg" xmlns:xlink="http://www.w3.org/1999/xlink" viewBox="0 0 537.36 533.64">
  <defs>
    <style>
      .cls-1 {
        fill: #000;
      }

      .cls-1, .cls-2, .cls-3 {
        stroke-width: 0px;
      }

      .cls-2 {
        fill: #fff;
        opacity: .3;
      }

      .cls-3 {
        fill: url(#radial-gradient);
      }
    </style>
    <radialGradient id="radial-gradient" cx="266.33" cy="266.33" fx="266.33" fy="266.33" r="266.33" gradientUnits="userSpaceOnUse">
      <stop offset=".6" stop-color="#faf068"/>
      <stop offset="1" stop-color="#eca821"/>
    </radialGradient>
  </defs>
  <g id="Layer_1" data-name="Layer 1">
    <circle class="cls-3" cx="266.33" cy="266.33" r="266.33"/>
  </g>
  <g id="Layer_2" data-name="Layer 2">
    <ellipse class="cls-2" cx="123.13" cy="80.84" rx="96.11" ry="25.27" transform="translate(-23.72 92.37) rotate(-37.78)"/>
  </g>
  <g id="Layer_3" data-name="Layer 3">
    <path class="cls-1" d="M220.52,521.06c22.98-84.4,45.96-168.81,69.15-253.99-69.25,21.42-137.93,42.66-206.61,63.9-.24-.32-.47-.64-.71-.95C156.92,224.36,231.48,118.69,306.05,13.03c.25.1.49.2.74.3-20.9,66.27-41.8,132.55-62.95,199.63,64.13-18.99,127.66-37.8,192.19-56.92-72.02,122.34-143.51,243.78-215.01,365.22-.17-.07-.33-.14-.5-.22Z"/>
  </g>
</svg>