<?xml version="1.0" encoding="UTF-8"?>
<svg xmlns="http://www.w3.org/2000/svg" xmlns:xlink="http://www.w3.org/1999/xlink" viewBox="0 0 532.65 534.96">
  <defs>
    <style>
      .cls-1 {
        fill: #000;
      }

      .cls-1, .cls-2, .cls-3 {
        stroke-width: 0px;
      }

      .cls-2 {
        fill: #fff;
        opacity: .3;
      }

      .cls-3 {
        fill: url(#radial-gradient);
      }
    </style>
    <radialGradient id="radial-gradient" cx="266.33" cy="266.33" fx="266.33" fy="266.33" r="266.33" gradientUnits="userSpaceOnUse">
      <stop offset=".6" stop-color="#faf6f2"/>
      <stop offset="1" stop-color="#8a7c71"/>
    </radialGradient>
  </defs>
  <g id="Layer_1" data-name="Layer 1">
    <circle class="cls-3" cx="266.33" cy="266.33" r="266.33"/>
  </g>
  <g id="Layer_2" data-name="Layer 2">
    <ellipse class="cls-2" cx="123.13" cy="80.84" rx="96.11" ry="25.27" transform="translate(-23.72 92.37) rotate(-37.78)"/>
  </g>
  <g id="Layer_3" data-name="Layer 3">
    <g>
      <path class="cls-1" d="M265.18,378.49c-38.3-66.34-76.31-132.18-114.51-198.35h228.89c-38.21,66.26-76.16,132.07-114.37,198.35Z"/>
      <path class="cls-1" d="M346.47,366.48c5.24,8.95,10.22,17.46,15.2,25.97,4.49,7.68,8.94,15.38,13.48,23.02.94,1.58,1.17,2.8.06,4.49-13.23,20.05-26.36,40.17-39.62,60.21-.64.97-2.25,1.85-3.41,1.86-43.52.1-87.04.11-130.57.03-1.15,0-2.75-.87-3.4-1.83-13.48-20.27-26.81-40.65-40.3-60.92-1.57-2.35-1.68-4-.14-6.47,9.15-14.74,18.1-29.6,27.12-44.42.33-.55.72-1.05,1.37-1.99,1.96,3.32,3.75,6.34,5.52,9.36,11.24,19.19,22.44,38.4,33.79,57.53.61,1.03,2.36,1.97,3.59,1.98,24.15.13,48.31.08,72.46.18,2.1,0,3.14-.79,4.16-2.47,12.64-20.8,25.33-41.57,38.02-62.34.75-1.23,1.55-2.43,2.66-4.18Z"/>
      <path class="cls-1" d="M210.99,130.87c-8.1,0-15.75,0-23.4,0-12.68-.02-25.37-.02-38.05-.08-5.78-.03-11.56-.12-17.33-.31-1.88-.06-3.04.5-4.02,2.18-12.36,21.36-24.75,42.69-37.24,63.97-1.07,1.82-.53,3.04.28,4.55,11.27,20.94,22.52,41.89,33.77,62.83.57,1.06,1.1,2.15,1.84,3.57-1.1.09-1.92.22-2.73.22-17.02.07-34.05.08-51.07.23-2.31.02-3.51-.66-4.55-2.79-10-20.46-20.17-40.85-30.15-61.33-.59-1.21-.53-3.33.15-4.49,21.58-37.2,43.29-74.33,64.9-111.52,1.36-2.35,2.97-3.51,5.68-3.73,16.72-1.31,33.44-2.7,50.16-4.12,5.86-.5,11.72-1.13,17.58-1.69,1.75-.17,3.27-.43,4.49,1.67,9.35,16.14,18.87,32.2,28.32,48.28.39.66.73,1.35,1.37,2.54Z"/>
      <path class="cls-1" d="M323.96,130.95c5.51-9.36,10.63-18.03,15.74-26.71,4.68-7.95,9.3-15.93,14.1-23.8.61-1,2.17-2.14,3.19-2.06,23.36,1.97,46.71,4.13,70.07,6.16,2.04.18,3.1,1.03,4.07,2.72,21.66,37.29,43.38,74.53,64.99,111.85.74,1.28.99,3.52.38,4.78-9.94,20.49-20.06,40.88-30.11,61.32-.77,1.57-1.42,2.68-3.6,2.66-17.47-.12-34.93-.08-52.4-.09-.52,0-1.03-.09-2.03-.19,2.71-5.08,5.23-9.85,7.78-14.6,9.36-17.41,18.71-34.82,28.13-52.19.82-1.52,1.01-2.57.06-4.19-12.39-21.06-24.71-42.17-36.94-63.33-1.29-2.24-2.74-2.97-5.28-2.95-24.8.28-49.6.44-74.39.63-.99,0-1.98,0-3.77,0Z"/>
    </g>
  </g>
</svg>