<?xml version="1.0" encoding="UTF-8"?>
<svg xmlns="http://www.w3.org/2000/svg" xmlns:xlink="http://www.w3.org/1999/xlink" viewBox="0 0 532.65 532.65">
  <defs>
    <style>
      .cls-1 {
        fill: #000;
      }

      .cls-1, .cls-2, .cls-3 {
        stroke-width: 0px;
      }

      .cls-2 {
        fill: #fff;
        opacity: .3;
      }

      .cls-3 {
        fill: url(#radial-gradient);
      }
    </style>
    <radialGradient id="radial-gradient" cx="266.33" cy="266.33" fx="266.33" fy="266.33" r="266.33" gradientUnits="userSpaceOnUse">
      <stop offset=".6" stop-color="#d195c2"/>
      <stop offset="1" stop-color="#80448e"/>
    </radialGradient>
  </defs>
  <g id="Layer_1" data-name="Layer 1">
    <circle class="cls-3" cx="266.33" cy="266.33" r="266.33"/>
  </g>
  <g id="Layer_2" data-name="Layer 2">
    <ellipse class="cls-2" cx="123.13" cy="80.84" rx="96.11" ry="25.27" transform="translate(-23.72 92.37) rotate(-37.78)"/>
  </g>
  <g id="Layer_3" data-name="Layer 3">
    <path class="cls-1" d="M264.09,93.34c1.66,0,3.31,0,4.97,0,.98.15,1.95.43,2.93.44,12.35.1,24.54,1.54,36.66,3.86,42.34,8.12,78.69,28.05,110.78,56.3,13.77,12.12,26.28,25.48,37.69,39.84,19.69,24.77,36.17,51.5,49.19,80.37,1.33,2.96,1.15,5.19-.29,7.88-22.75,42.33-52.26,79.09-90.34,108.59-48.95,37.93-104.27,55.79-166.32,51.35-26.58-1.9-52.1-8.42-76.46-19.29-40.96-18.27-74.49-46.14-103.03-80.34-16.46-19.72-30.74-40.92-42.24-63.94,0-.37,0-.74,0-1.1,4.57-9.49,8.79-19.17,13.76-28.45,20.74-38.82,47.06-73.25,81.02-101.54,22.37-18.63,47.12-33.12,74.78-42.42,21.03-7.07,42.63-10.9,64.85-11.12.68,0,1.36-.28,2.05-.43ZM318.23,148.71c-.1.28-.2.56-.31.85.38.22.76.47,1.15.67,13.9,7.17,25.98,16.69,35.97,28.71,23.73,28.56,32.67,61.46,27.07,97.97-4.42,28.79-17.94,53.06-40.15,72.07-26.76,22.89-57.87,32-92.69,27.09-26.23-3.7-48.7-15.49-66.87-34.83-27.62-29.39-38.38-64.45-31.86-104.03,6.34-38.47,27.4-67.27,61.54-86.35.45-.25.87-.57,1.3-.85-3.82.85-7.46,2.05-11.04,3.41-29.85,11.33-55.08,29.44-77.01,52.42-18.73,19.63-34.19,41.53-46.46,65.73-1.33,2.63-1.25,4.57.28,7.01,23.35,37.12,52.98,67.98,90.88,90.38,38.7,22.87,80.48,32.43,125.28,27.01,25.01-3.02,48.28-11.53,69.88-24.44,38.94-23.27,68.58-55.62,91.66-94.34.93-1.56.8-2.73.04-4.25-10.98-21.69-24.71-41.49-40.92-59.58-22.18-24.75-47.85-44.79-78.76-57.6-6.23-2.58-12.65-4.7-18.98-7.04ZM211.75,269.4c2.16,13.72,15.97,33.17,37.77,39.24,23.16,6.45,47.89-3.25,60.71-23.89,13.27-21.34,10.86-49.31-5.77-67.8-16.03-17.82-39.34-20.86-53.36-16.21,19.88,15.66,18.95,39.41,10.98,52.82-4.4,7.41-10.38,13.09-18.31,16.51-10.68,4.61-21.38,4.15-32.03-.68Z"/>
  </g>
</svg>