<?xml version="1.0" encoding="UTF-8"?>
<svg xmlns="http://www.w3.org/2000/svg" xmlns:xlink="http://www.w3.org/1999/xlink" viewBox="0 0 532.65 532.65">
  <defs>
    <style>
      .cls-1 {
        fill: #000;
      }

      .cls-1, .cls-2, .cls-3 {
        stroke-width: 0px;
      }

      .cls-2 {
        fill: #fff;
        opacity: .3;
      }

      .cls-3 {
        fill: url(#radial-gradient);
      }
    </style>
    <radialGradient id="radial-gradient" cx="266.33" cy="266.33" fx="266.33" fy="266.33" r="266.33" gradientUnits="userSpaceOnUse">
      <stop offset=".6" stop-color="#99d5f4"/>
      <stop offset="1" stop-color="#19a8e0"/>
    </radialGradient>
  </defs>
  <g id="Layer_1" data-name="Layer 1">
    <circle class="cls-3" cx="266.33" cy="266.33" r="266.33"/>
  </g>
  <g id="Layer_2" data-name="Layer 2">
    <ellipse class="cls-2" cx="123.13" cy="80.84" rx="96.11" ry="25.27" transform="translate(-23.72 92.37) rotate(-37.78)"/>
  </g>
  <g id="Layer_3" data-name="Layer 3">
    <path class="cls-1" d="M432.51,64.39c-5.95,1.77-11.94,3.43-17.85,5.31-24.8,7.91-48.85,17.5-70.43,32.4-14.51,10.02-26.31,22.64-35.4,37.72-14.29,23.71-15.02,48.39-4.74,73.73,6.85,16.88,16.84,31.88,27.79,46.28,12.79,16.81,25.95,33.35,38.58,50.28,13.92,18.67,21.27,40.09,25.12,62.86,2.88,17.01,2.28,33.8-3.47,50.17-8.38,23.82-25.14,40.15-47.08,51.62-21.14,11.05-43.9,16.14-67.54,17.76-43.78,3.01-85.58-5-125.35-23.27-32.94-15.13-61-36.48-81.6-66.76-14.43-21.21-23.09-44.61-25.88-70.13-3.08-28.14-.99-55.79,8-82.77,7.98-23.95,20.8-45.05,37.6-63.81,22.49-25.1,49.71-43.87,79.44-59.19,39.29-20.25,80.94-33.96,123.99-43.41,21.35-4.69,42.88-8.68,64.47-12.05,17.12-2.67,34.46-4,51.71-5.77,7.46-.76,14.96-1.13,22.44-1.67.07.24.13.47.2.71ZM159.57,392.95c-3.48.34-8.2.4-12.74,1.31-15.26,3.06-19.79,13.71-11.72,27.04,3.96,6.53,9.3,11.81,15.28,16.43,19.2,14.82,40.84,24,64.82,27.49,8.58,1.25,17.24,1.42,25.62-1.43,11.17-3.8,14.69-12.21,9.59-22.83-3.88-8.08-10.04-14.31-17.02-19.65-21.46-16.4-45.6-26.06-73.84-28.35Z"/>
  </g>
</svg>